<?xml version="1.0" encoding="UTF-8" standalone="no"?><svg xmlns="http://www.w3.org/2000/svg" xmlns:xlink="http://www.w3.org/1999/xlink" contentStyleType="text/css" height="2148px" preserveAspectRatio="none" style="width:547px;height:2148px;background:#FFFFFF;" version="1.1" viewBox="0 0 547 2148" width="547px" zoomAndPan="magnify"><defs/><g><!--MD5=[1855e2417447626d35df7fa5959f32dc]
cluster Приложение Автомойки--><g id="cluster_Приложение Автомойки"><rect fill="none" height="2135" rx="2.5" ry="2.5" style="stroke:#181818;stroke-width:1.0;" width="435" x="106" y="7"/><text fill="#000000" font-family="sans-serif" font-size="14" font-weight="bold" lengthAdjust="spacing" textLength="200" x="223.5" y="21.9951">Приложение Автомойки</text></g><!--MD5=[d970a993a15fcd408c7faf021a251d97]
cluster Выбор мойки--><g id="cluster_Выбор мойки"><rect fill="none" height="255" rx="2.5" ry="2.5" style="stroke:#181818;stroke-width:1.0;" width="244" x="201.5" y="112"/><text fill="#000000" font-family="sans-serif" font-size="14" font-weight="bold" lengthAdjust="spacing" textLength="109" x="269" y="126.9951">Выбор мойки</text></g><!--MD5=[cd67c5c1fb30c86e4a5b58512748183c]
cluster Запись на мойку--><g id="cluster_Запись на мойку"><rect fill="none" height="355" rx="2.5" ry="2.5" style="stroke:#181818;stroke-width:1.0;" width="293" x="177" y="391"/><text fill="#000000" font-family="sans-serif" font-size="14" font-weight="bold" lengthAdjust="spacing" textLength="136" x="255.5" y="405.9951">Запись на мойку</text></g><!--MD5=[d78e05d897f6bcaa42470a6f1dcfac0d]
cluster Уведомления--><g id="cluster_Уведомления"><rect fill="none" height="202" rx="2.5" ry="2.5" style="stroke:#181818;stroke-width:1.0;" width="344" x="151.5" y="770"/><text fill="#000000" font-family="sans-serif" font-size="14" font-weight="bold" lengthAdjust="spacing" textLength="111" x="268" y="784.9951">Уведомления</text></g><!--MD5=[e75f3388358f502d5adf5a9009b5933a]
cluster Оплата--><g id="cluster_Оплата"><rect fill="none" height="239" rx="2.5" ry="2.5" style="stroke:#181818;stroke-width:1.0;" width="238" x="204.5" y="996"/><text fill="#000000" font-family="sans-serif" font-size="14" font-weight="bold" lengthAdjust="spacing" textLength="58" x="294.5" y="1010.9951">Оплата</text></g><!--MD5=[931e4e0628c5c3c4c84a3d3cb09ff4fc]
cluster Личный кабинет--><g id="cluster_Личный кабинет"><rect fill="none" height="287" rx="2.5" ry="2.5" style="stroke:#181818;stroke-width:1.0;" width="296" x="175.5" y="1259"/><text fill="#000000" font-family="sans-serif" font-size="14" font-weight="bold" lengthAdjust="spacing" textLength="137" x="255" y="1273.9951">Личный кабинет</text></g><!--MD5=[a35bf8134877ec3581e4685a0746dc75]
cluster Отзывы--><g id="cluster_Отзывы"><rect fill="none" height="166" rx="2.5" ry="2.5" style="stroke:#181818;stroke-width:1.0;" width="216" x="215.5" y="1570"/><text fill="#000000" font-family="sans-serif" font-size="14" font-weight="bold" lengthAdjust="spacing" textLength="63" x="292" y="1584.9951">Отзывы</text></g><!--MD5=[09053c803f064cc295a52e2afee339d0]
cluster Процесс мойки--><g id="cluster_Процесс мойки"><rect fill="none" height="285" rx="2.5" ry="2.5" style="stroke:#181818;stroke-width:1.0;" width="387" x="130" y="1760"/><text fill="#000000" font-family="sans-serif" font-size="14" font-weight="bold" lengthAdjust="spacing" textLength="126" x="260.5" y="1774.9951">Процесс мойки</text></g><g id="elem_UC9"><ellipse cx="323.6446" cy="2095.1289" fill="#F1F1F1" rx="141.1446" ry="30.6289" style="stroke:#181818;stroke-width:0.5;"/><text fill="#000000" font-family="sans-serif" font-size="14" lengthAdjust="spacing" textLength="252" x="197.6446" y="2097.9756">Просмотр рекомендаций по уходу</text></g><g id="elem_UC10"><ellipse cx="323.6802" cy="68.836" fill="#F1F1F1" rx="122.1802" ry="26.836" style="stroke:#181818;stroke-width:0.5;"/><text fill="#000000" font-family="sans-serif" font-size="14" lengthAdjust="spacing" textLength="212" x="217.6802" y="71.6827">Использование зоны отдыха</text></g><g id="elem_UC1_1"><ellipse cx="323.7042" cy="169.9408" fill="#F1F1F1" rx="102.7042" ry="22.9408" style="stroke:#181818;stroke-width:0.5;"/><text fill="#000000" font-family="sans-serif" font-size="14" lengthAdjust="spacing" textLength="170" x="238.7042" y="172.7875">Просмотр типов мойки</text></g><g id="elem_UC1_2"><ellipse cx="323.4086" cy="252.0817" fill="#F1F1F1" rx="105.9086" ry="23.5817" style="stroke:#181818;stroke-width:0.5;"/><text fill="#000000" font-family="sans-serif" font-size="14" lengthAdjust="spacing" textLength="177" x="234.9086" y="254.9284">Сравнение типов мойки</text></g><g id="elem_UC1_3"><ellipse cx="323.4744" cy="330.8949" fill="#F1F1F1" rx="87.4744" ry="19.8949" style="stroke:#181818;stroke-width:0.5;"/><text fill="#000000" font-family="sans-serif" font-size="14" lengthAdjust="spacing" textLength="136" x="255.4744" y="333.7416">Выбор типа мойки</text></g><g id="elem_UC2_1"><ellipse cx="323.6751" cy="455.035" fill="#F1F1F1" rx="130.6751" ry="28.535" style="stroke:#181818;stroke-width:0.5;"/><text fill="#000000" font-family="sans-serif" font-size="14" lengthAdjust="spacing" textLength="230" x="208.6751" y="457.8817">Просмотр доступного времени</text></g><g id="elem_UC2_2"><ellipse cx="323.7042" cy="541.9408" fill="#F1F1F1" rx="102.7042" ry="22.9408" style="stroke:#181818;stroke-width:0.5;"/><text fill="#000000" font-family="sans-serif" font-size="14" lengthAdjust="spacing" textLength="170" x="238.7042" y="544.7875">Выбор времени записи</text></g><g id="elem_UC2_3"><ellipse cx="323.3679" cy="624.1736" fill="#F1F1F1" rx="106.3679" ry="23.6736" style="stroke:#181818;stroke-width:0.5;"/><text fill="#000000" font-family="sans-serif" font-size="14" lengthAdjust="spacing" textLength="178" x="234.3679" y="627.0203">Подтверждение записи</text></g><g id="elem_UC2_4"><ellipse cx="323.3679" cy="706.1736" fill="#F1F1F1" rx="106.3679" ry="23.6736" style="stroke:#181818;stroke-width:0.5;"/><text fill="#000000" font-family="sans-serif" font-size="14" lengthAdjust="spacing" textLength="178" x="234.3679" y="709.0203">Отмена/перенос записи</text></g><g id="elem_UC3_1"><ellipse cx="323.5234" cy="839.1047" fill="#F1F1F1" rx="156.0234" ry="33.6047" style="stroke:#181818;stroke-width:0.5;"/><text fill="#000000" font-family="sans-serif" font-size="14" lengthAdjust="spacing" textLength="283" x="182.0234" y="841.9514">Получение уведомления о готовности</text></g><g id="elem_UC3_2"><ellipse cx="323.2877" cy="931.8575" fill="#F1F1F1" rx="107.2877" ry="23.8575" style="stroke:#181818;stroke-width:0.5;"/><text fill="#000000" font-family="sans-serif" font-size="14" lengthAdjust="spacing" textLength="180" x="233.2877" y="934.7042">Настройка уведомлений</text></g><g id="elem_UC4_1"><ellipse cx="323.6608" cy="1054.0322" fill="#F1F1F1" rx="103.1608" ry="23.0322" style="stroke:#181818;stroke-width:0.5;"/><text fill="#000000" font-family="sans-serif" font-size="14" lengthAdjust="spacing" textLength="171" x="238.1608" y="1056.8788">Выбор способа оплаты</text></g><g id="elem_UC4_2"><ellipse cx="323.4563" cy="1129.7913" fill="#F1F1F1" rx="76.9563" ry="17.7913" style="stroke:#181818;stroke-width:0.5;"/><text fill="#000000" font-family="sans-serif" font-size="14" lengthAdjust="spacing" textLength="111" x="265.0675" y="1133.5101">Оплата онлайн</text></g><g id="elem_UC4_3"><ellipse cx="323.4652" cy="1201.193" fill="#F1F1F1" rx="78.9652" ry="18.193" style="stroke:#181818;stroke-width:0.5;"/><text fill="#000000" font-family="sans-serif" font-size="14" lengthAdjust="spacing" textLength="116" x="263.4" y="1204.6886">Получение чека</text></g><g id="elem_UC5_1"><ellipse cx="323.7278" cy="1322.8456" fill="#F1F1F1" rx="129.7278" ry="28.3456" style="stroke:#181818;stroke-width:0.5;"/><text fill="#000000" font-family="sans-serif" font-size="14" lengthAdjust="spacing" textLength="228" x="209.7278" y="1325.6922">Просмотр истории посещений</text></g><g id="elem_UC5_2"><ellipse cx="323.3004" cy="1412.0601" fill="#F1F1F1" rx="113.3004" ry="25.0601" style="stroke:#181818;stroke-width:0.5;"/><text fill="#000000" font-family="sans-serif" font-size="14" lengthAdjust="spacing" textLength="193" x="226.8004" y="1414.9068">Просмотр бонусов/скидок</text></g><g id="elem_UC5_3"><ellipse cx="323.5975" cy="1500.8195" fill="#F1F1F1" rx="132.0975" ry="28.8195" style="stroke:#181818;stroke-width:0.5;"/><text fill="#000000" font-family="sans-serif" font-size="14" lengthAdjust="spacing" textLength="233" x="207.0975" y="1503.6662">Использование бонусов/скидок</text></g><g id="elem_UC6_1"><ellipse cx="323.6107" cy="1624.0221" fill="#F1F1F1" rx="80.6107" ry="18.5221" style="stroke:#181818;stroke-width:0.5;"/><text fill="#000000" font-family="sans-serif" font-size="14" lengthAdjust="spacing" textLength="120" x="262.1726" y="1627.3348">Чтение отзывов</text></g><g id="elem_UC6_2"><ellipse cx="323.3872" cy="1698.7774" fill="#F1F1F1" rx="91.8872" ry="20.7774" style="stroke:#181818;stroke-width:0.5;"/><text fill="#000000" font-family="sans-serif" font-size="14" lengthAdjust="spacing" textLength="146" x="250.3872" y="1701.6241">Оставление отзыва</text></g><g id="elem_UC7_1"><ellipse cx="323.3278" cy="1832.8656" fill="#F1F1F1" rx="177.3278" ry="37.8656" style="stroke:#181818;stroke-width:0.5;"/><text fill="#000000" font-family="sans-serif" font-size="14" lengthAdjust="spacing" textLength="327" x="159.8278" y="1835.7122">Отображение оговоренного времени мойки</text></g><g id="elem_UC8_1"><ellipse cx="323.3371" cy="1929.1674" fill="#F1F1F1" rx="101.3371" ry="22.6674" style="stroke:#181818;stroke-width:0.5;"/><text fill="#000000" font-family="sans-serif" font-size="14" lengthAdjust="spacing" textLength="167" x="239.8371" y="1932.0141">Просмотр фото/видео</text></g><g id="elem_UC8_2"><ellipse cx="323.3872" cy="2007.7774" fill="#F1F1F1" rx="91.8872" ry="20.7774" style="stroke:#181818;stroke-width:0.5;"/><text fill="#000000" font-family="sans-serif" font-size="14" lengthAdjust="spacing" textLength="146" x="250.3872" y="2010.6241">Запрос фото/видео</text></g><!--MD5=[0ba5ee7700168656dc1b457c6fe9fdac]
entity Client--><g id="elem_Client"><ellipse cx="46" cy="1062.5" fill="#F1F1F1" rx="8" ry="8" style="stroke:#181818;stroke-width:0.5;"/><path d="M46,1070.5 L46,1097.5 M33,1078.5 L59,1078.5 M46,1097.5 L33,1112.5 M46,1097.5 L59,1112.5 " fill="none" style="stroke:#181818;stroke-width:0.5;"/><text fill="#000000" font-family="sans-serif" font-size="14" lengthAdjust="spacing" textLength="55" x="18.5" y="1126.9951">Клиент</text></g><!--MD5=[75bcab72e22e3bde62d8cef4f1a817de]
entity Staff--><g id="elem_Staff"><ellipse cx="46" cy="2057" fill="#F1F1F1" rx="8" ry="8" style="stroke:#181818;stroke-width:0.5;"/><path d="M46,2065 L46,2092 M33,2073 L59,2073 M46,2092 L33,2107 M46,2092 L59,2107 " fill="none" style="stroke:#181818;stroke-width:0.5;"/><text fill="#000000" font-family="sans-serif" font-size="14" lengthAdjust="spacing" textLength="71" x="6" y="2121.4951">Персонал</text><text fill="#000000" font-family="sans-serif" font-size="14" lengthAdjust="spacing" textLength="80" x="6" y="2137.792">Автомойки</text></g><!--MD5=[7f7e8d9325bf2561b54973d9420d3caa]
link Client to UC1_1--><g id="link_Client_UC1_1"><path d="M47.91,1053.73 C51.99,888.48 69.7,243.01 98,211 C125.05,180.4 166.72,167.8 206.85,163.66 " fill="none" id="Client-to-UC1_1" style="stroke:#181818;stroke-width:1.0;"/><polygon fill="none" points="206.53,156.66,226.97,162.24,207.52,170.63,206.53,156.66" style="stroke:#181818;stroke-width:1.0;"/></g><!--MD5=[cb7474a95b66921cbfeeb86889d3e689]
link Client to UC1_2--><g id="link_Client_UC1_2"><path d="M46.73,1053.99 C46.04,902.9 47.02,350.32 98,293 C124.18,263.57 163.88,250.81 202.66,246.22 " fill="none" id="Client-to-UC1_2" style="stroke:#181818;stroke-width:1.0;"/><polygon fill="none" points="202.26,239.23,222.78,244.52,203.44,253.18,202.26,239.23" style="stroke:#181818;stroke-width:1.0;"/></g><!--MD5=[18dc69f4da65096337f208b2ac1a1336]
link Client to UC1_3--><g id="link_Client_UC1_3"><path d="M47.45,1053.84 C49.38,917.71 58.75,461.26 98,410 C127.26,371.79 176.36,352 221.19,341.77 " fill="none" id="Client-to-UC1_3" style="stroke:#181818;stroke-width:1.0;"/><polygon fill="none" points="220.08,334.86,241.07,337.77,222.85,348.58,220.08,334.86" style="stroke:#181818;stroke-width:1.0;"/></g><!--MD5=[f2eace6a5dc3a6c9a6fa863cec919110]
link Client to UC2_1--><g id="link_Client_UC2_1"><path d="M47.69,1053.69 C50.29,929.29 61.28,542.25 98,501 C117.56,479.03 144.55,465.91 173.04,458.37 " fill="none" id="Client-to-UC2_1" style="stroke:#181818;stroke-width:1.0;"/><polygon fill="none" points="171.9,451.45,192.94,453.99,174.91,465.12,171.9,451.45" style="stroke:#181818;stroke-width:1.0;"/></g><!--MD5=[ec4548ef5ba8e9ac31f157625d251f6c]
link Client to UC2_2--><g id="link_Client_UC2_2"><path d="M48.22,1053.94 C52.15,941.66 66.2,617.48 98,583 C125.28,553.42 166.26,540.86 205.76,536.47 " fill="none" id="Client-to-UC2_2" style="stroke:#181818;stroke-width:1.0;"/><polygon fill="none" points="205.41,529.47,225.89,534.88,206.51,543.43,205.41,529.47" style="stroke:#181818;stroke-width:1.0;"/></g><!--MD5=[fea8bd50c803b3b67ed68b753ea51c32]
link Client to UC2_3--><g id="link_Client_UC2_3"><path d="M49,1053.79 C54.57,954.33 71.57,693.12 98,665 C124.4,636.92 163.15,624.26 201.06,619.35 " fill="none" id="Client-to-UC2_3" style="stroke:#181818;stroke-width:1.0;"/><polygon fill="none" points="200.46,612.38,221.04,617.44,201.8,626.32,200.46,612.38" style="stroke:#181818;stroke-width:1.0;"/></g><!--MD5=[0c45996dbd95c00380fbb694b2de8d7f]
link Client to UC2_4--><g id="link_Client_UC2_4"><path d="M48.75,1053.75 C52.79,981.52 65.08,828.75 98,789 C126.37,754.74 170.27,734.62 211.75,722.8 " fill="none" id="Client-to-UC2_4" style="stroke:#181818;stroke-width:1.0;"/><polygon fill="none" points="210.09,716,231.2,717.79,213.58,729.56,210.09,716" style="stroke:#181818;stroke-width:1.0;"/></g><!--MD5=[1e62ff5591276ad12099e9080308ade5]
link Client to UC3_1--><g id="link_Client_UC3_1"><path d="M51.84,1053.87 C59.22,1001.86 74.9,912.55 98,890 C114.01,874.37 133.75,863.13 154.83,855.12 " fill="none" id="Client-to-UC3_1" style="stroke:#181818;stroke-width:1.0;"/><polygon fill="none" points="152.88,848.4,174.07,848.76,157.28,861.69,152.88,848.4" style="stroke:#181818;stroke-width:1.0;"/></g><!--MD5=[ac0bf5d303ffa3682653470cf2482a12]
link Client to UC3_2--><g id="link_Client_UC3_2"><path d="M65.76,1053.75 C74.06,1040 84.93,1025.35 98,1015 C134.55,986.04 182.2,966.52 224.2,953.73 " fill="none" id="Client-to-UC3_2" style="stroke:#181818;stroke-width:1.0;"/><polygon fill="none" points="222.5,946.94,243.65,948.15,226.36,960.39,222.5,946.94" style="stroke:#181818;stroke-width:1.0;"/></g><!--MD5=[b48ac308514f17d4f11920e0d18589d9]
link Client to UC4_1--><g id="link_Client_UC4_1"><path d="M73.67,1088.32 C106.39,1083.81 163.88,1075.88 215.36,1068.78 " fill="none" id="Client-to-UC4_1" style="stroke:#181818;stroke-width:1.0;"/><polygon fill="none" points="214.71,1061.8,235.47,1066,216.62,1075.67,214.71,1061.8" style="stroke:#181818;stroke-width:1.0;"/></g><!--MD5=[5ef064f8a864cc22321c9025e3b4bdc5]
link Client to UC4_2--><g id="link_Client_UC4_2"><path d="M73.67,1095.68 C111.01,1100.83 180.6,1110.43 236.72,1118.17 " fill="none" id="Client-to-UC4_2" style="stroke:#181818;stroke-width:1.0;"/><polygon fill="none" points="237.84,1111.26,256.7,1120.92,235.93,1125.13,237.84,1111.26" style="stroke:#181818;stroke-width:1.0;"/></g><!--MD5=[0e12f18e555f88b5413c1c3395ec9b9d]
link Client to UC4_3--><g id="link_Client_UC4_3"><path d="M65.66,1130.37 C73.83,1143.33 84.64,1156.62 98,1165 C135.51,1188.51 183.24,1198.34 225.03,1201.95 " fill="none" id="Client-to-UC4_3" style="stroke:#181818;stroke-width:1.0;"/><polygon fill="none" points="225.51,1194.96,245.01,1203.26,224.59,1208.93,225.51,1194.96" style="stroke:#181818;stroke-width:1.0;"/></g><!--MD5=[4478abc56430b790c07af53c92f88242]
link Client to UC5_1--><g id="link_Client_UC5_1"><path d="M51.72,1130.01 C57.53,1161.81 70.3,1206.42 98,1235 C127.11,1265.02 167.68,1285.02 206.34,1298.23 " fill="none" id="Client-to-UC5_1" style="stroke:#181818;stroke-width:1.0;"/><polygon fill="none" points="208.46,1291.56,225.4,1304.28,204.22,1304.91,208.46,1291.56" style="stroke:#181818;stroke-width:1.0;"/></g><!--MD5=[ddbe72225372309a138bc1ad198ba128]
link Client to UC5_2--><g id="link_Client_UC5_2"><path d="M48.83,1130.1 C52.9,1197.98 65.1,1335.86 98,1369 C122.54,1393.72 156.65,1406.54 190.87,1412.72 " fill="none" id="Client-to-UC5_2" style="stroke:#181818;stroke-width:1.0;"/><polygon fill="none" points="192.17,1405.84,210.96,1415.63,190.17,1419.69,192.17,1405.84" style="stroke:#181818;stroke-width:1.0;"/></g><!--MD5=[6baf33e694dbf1b40f0e6821bfbe60cb]
link Client to UC5_3--><g id="link_Client_UC5_3"><path d="M47.03,1130.05 C47.92,1213.26 54.69,1407.71 98,1454 C117.58,1474.93 143.89,1487.8 171.6,1495.5 " fill="none" id="Client-to-UC5_3" style="stroke:#181818;stroke-width:1.0;"/><polygon fill="none" points="173.56,1488.77,191.45,1500.13,170.38,1502.4,173.56,1488.77" style="stroke:#181818;stroke-width:1.0;"/></g><!--MD5=[701bb1a5eb3b1dca6e99d2e0c40ec23c]
link Client to UC6_1--><g id="link_Client_UC6_1"><path d="M46.24,1130.24 C45.06,1227.71 47.07,1482.25 98,1546 C129.26,1585.12 181.33,1604.68 227.45,1614.43 " fill="none" id="Client-to-UC6_1" style="stroke:#181818;stroke-width:1.0;"/><polygon fill="none" points="228.74,1607.55,247.12,1618.09,226.17,1621.31,228.74,1607.55" style="stroke:#181818;stroke-width:1.0;"/></g><!--MD5=[b1cab4728520766946cd0a205c031560]
link Client to UC6_2--><g id="link_Client_UC6_2"><path d="M47.78,1130.13 C50.62,1251.17 62.16,1621.08 98,1660 C128.25,1692.85 175.46,1704.31 218.81,1706.86 " fill="none" id="Client-to-UC6_2" style="stroke:#181818;stroke-width:1.0;"/><polygon fill="none" points="219.24,1699.87,239.03,1707.45,218.83,1713.87,219.24,1699.87" style="stroke:#181818;stroke-width:1.0;"/></g><!--MD5=[d0f2546fada12a2021b3431bf2de2136]
link Client to UC7_1--><g id="link_Client_UC7_1"><path d="M47.76,1130.19 C50.65,1261.15 62.72,1686.69 98,1736 C118.03,1764 147.9,1783.99 179.36,1798.24 " fill="none" id="Client-to-UC7_1" style="stroke:#181818;stroke-width:1.0;"/><polygon fill="none" points="182.22,1791.85,198,1805.99,176.85,1804.78,182.22,1791.85" style="stroke:#181818;stroke-width:1.0;"/></g><!--MD5=[c0ec7c9ff1c738c830ba64ad2ad5b5d8]
link Client to UC8_1--><g id="link_Client_UC8_1"><path d="M46.74,1130.13 C46.09,1281.02 47.23,1830.94 98,1888 C125.32,1918.7 167.35,1931.26 207.7,1935.33 " fill="none" id="Client-to-UC8_1" style="stroke:#181818;stroke-width:1.0;"/><polygon fill="none" points="208.44,1928.36,227.92,1936.71,207.49,1942.33,208.44,1928.36" style="stroke:#181818;stroke-width:1.0;"/></g><!--MD5=[61ffcc815c98b700b7ec0e68e54b61c3]
link Client to UC8_2--><g id="link_Client_UC8_2"><path d="M47.91,1130.1 C51.98,1294.63 69.68,1937.26 98,1969 C128.08,2002.71 176,2014.11 219.86,2016.39 " fill="none" id="Client-to-UC8_2" style="stroke:#181818;stroke-width:1.0;"/><polygon fill="none" points="220.14,2009.39,239.98,2016.84,219.83,2023.39,220.14,2009.39" style="stroke:#181818;stroke-width:1.0;"/></g><!--MD5=[b08b9cbe15a93060f2d60871bb0d1e27]
link Client to UC9--><g id="link_Client_UC9"><path d="M47.76,1130.12 C51.38,1303.37 67.96,2009.51 98,2045 C115.12,2065.22 138.44,2078.31 163.6,2086.62 " fill="none" id="Client-to-UC9" style="stroke:#181818;stroke-width:1.0;"/><polygon fill="none" points="165.75,2079.96,183.13,2092.08,161.98,2093.44,165.75,2079.96" style="stroke:#181818;stroke-width:1.0;"/></g><!--MD5=[758e19f0b1de57767fb0dd7dbdefb155]
link Client to UC10--><g id="link_Client_UC10"><path d="M47.79,1053.88 C51.53,879.84 68.61,167.56 98,131 C119.5,104.26 151.41,88.44 184.46,79.23 " fill="none" id="Client-to-UC10" style="stroke:#181818;stroke-width:1.0;"/><polygon fill="none" points="182.91,72.4,203.99,74.54,186.18,86.02,182.91,72.4" style="stroke:#181818;stroke-width:1.0;"/></g><!--MD5=[e8c6e11687cd6cb24d141813c761cf63]
link Staff to UC9--><g id="link_Staff_UC9"><path d="M86.18,2095 C110.5,2095 143.44,2095 176.99,2095 " fill="none" id="Staff-to-UC9" style="stroke:#181818;stroke-width:1.0;"/><polygon fill="#181818" points="182.38,2095,173.38,2091,177.38,2095,173.38,2099,182.38,2095" style="stroke:#181818;stroke-width:1.0;"/></g><!--MD5=[0105c179408d8cb30821347afb793350]
@startuml
left to right direction
skinparam packageStyle rectangle
actor Client as "Клиент"
actor "Персонал\nАвтомойки" as Staff

rectangle "Приложение Автомойки" {
  package "Выбор мойки" {
    usecase "Просмотр типов мойки" as UC1_1
    usecase "Сравнение типов мойки" as UC1_2
    usecase "Выбор типа мойки" as UC1_3
  }
   package "Запись на мойку" {
    usecase "Просмотр доступного времени" as UC2_1
    usecase "Выбор времени записи" as UC2_2
    usecase "Подтверждение записи" as UC2_3
    usecase "Отмена/перенос записи" as UC2_4
  }

  package "Уведомления" {
    usecase "Получение уведомления о готовности" as UC3_1
    usecase "Настройка уведомлений" as UC3_2
  }
  package "Оплата" {
        usecase "Выбор способа оплаты" as UC4_1
    usecase "Оплата онлайн" as UC4_2
    usecase "Получение чека" as UC4_3
 }
  package "Личный кабинет" {
      usecase "Просмотр истории посещений" as UC5_1
      usecase "Просмотр бонусов/скидок" as UC5_2
     usecase "Использование бонусов/скидок" as UC5_3
 }

 package "Отзывы" {
       usecase "Чтение отзывов" as UC6_1
     usecase "Оставление отзыва" as UC6_2
 }

  package "Процесс мойки" {
    usecase "Отображение оговоренного времени мойки" as UC7_1
    usecase "Просмотр фото/видео" as UC8_1
    usecase "Запрос фото/видео" as UC8_2
  }

 usecase "Просмотр рекомендаций по уходу" as UC9
 usecase "Использование зоны отдыха" as UC10

}


Client - -|> UC1_1
Client - -|> UC1_2
Client - -|> UC1_3

Client - -|> UC2_1
Client - -|> UC2_2
Client - -|> UC2_3
Client - -|> UC2_4

Client - -|> UC3_1
Client - -|> UC3_2

Client - -|> UC4_1
Client - -|> UC4_2
Client - -|> UC4_3

Client - -|> UC5_1
Client - -|> UC5_2
Client - -|> UC5_3

Client - -|> UC6_1
Client - -|> UC6_2
Client - -|> UC7_1

Client - -|> UC8_1
Client - -|> UC8_2

Client - -|> UC9
Client - -|> UC10

Staff - -> UC9
@enduml

PlantUML version 1.2022.7(Mon Aug 22 17:01:30 UTC 2022)
(GPL source distribution)
Java Runtime: OpenJDK Runtime Environment
JVM: OpenJDK 64-Bit Server VM
Default Encoding: UTF-8
Language: en
Country: null
--></g></svg>